<?xml version="1.0" encoding="UTF-8" standalone="no"?>
<!DOCTYPE svg PUBLIC "-//W3C//DTD SVG 1.1//EN" "http://www.w3.org/Graphics/SVG/1.1/DTD/svg11.dtd">
<svg width="100%" height="100%" viewBox="0 0 2375 2375" version="1.1" xmlns="http://www.w3.org/2000/svg" xmlns:xlink="http://www.w3.org/1999/xlink" xml:space="preserve" xmlns:serif="http://www.serif.com/" style="fill-rule:evenodd;clip-rule:evenodd;stroke-linejoin:round;stroke-miterlimit:2;">
    <g transform="matrix(1,0,0,1,-479.165,-479.166)">
        <g transform="matrix(4.16667,0,0,4.16667,1777.69,2107.52)">
            <g id="contents">
                <path d="M0,-211.612C-28.663,-211.612 -51.898,-234.847 -51.898,-263.51C-51.898,-292.173 -28.663,-315.408 0,-315.408C28.662,-315.408 51.899,-292.173 51.899,-263.51C51.899,-234.847 28.662,-211.612 0,-211.612M51.008,61.505C35.507,81.919 2.201,114.141 -46.707,100.553C-70.302,93.998 -94.917,73.538 -78.184,13.316L-45.545,-104.179C-42.957,-113.505 -45.147,-123.482 -51.405,-130.866C-55.204,-135.348 -60.204,-138.548 -65.865,-140.12C-69.425,-141.11 -73.094,-141.414 -76.771,-141.022C-84.467,-140.203 -92.236,-138.925 -99.859,-137.23C-100.578,-137.071 -101.304,-137.099 -101.983,-137.287C-102.998,-137.57 -103.903,-138.214 -104.498,-139.143C-105.489,-140.69 -105.41,-142.691 -104.299,-144.154C-88.8,-164.57 -55.494,-196.792 -6.586,-183.204C17.009,-176.648 41.622,-156.191 24.892,-95.968L-7.747,21.528C-10.336,30.855 -8.145,40.831 -1.888,48.215C1.911,52.697 6.912,55.897 12.572,57.469C16.132,58.459 19.802,58.761 23.479,58.371C31.176,57.549 38.944,56.276 46.567,54.581C47.284,54.421 48.011,54.445 48.69,54.636C49.707,54.917 50.612,55.563 51.207,56.491C52.198,58.038 52.119,60.039 51.008,61.505M-26.646,-390.806C-184.047,-390.806 -311.646,-263.207 -311.646,-105.806C-311.646,51.596 -184.047,179.194 -26.646,179.194C130.756,179.194 258.354,51.596 258.354,-105.806C258.354,-263.207 130.756,-390.806 -26.646,-390.806" style="fill:rgb(0,126,255);fill-rule:nonzero;"/>
            </g>
        </g>
    </g>
</svg>
